<svg xmlns="http://www.w3.org/2000/svg" xmlns:xlink="http://www.w3.org/1999/xlink" viewBox="0 0 194.23 194.23"><defs><style>.cls-1{isolation:isolate;}.cls-2{fill:url(#New_Gradient_Swatch_4);}.cls-3{fill:url(#New_Gradient_Swatch_4-2);}.cls-4,.cls-5{mix-blend-mode:multiply;}.cls-5{fill:#e6e6e7;opacity:0.35;}.cls-6{fill:url(#New_Gradient_Swatch_4-3);}</style><linearGradient id="New_Gradient_Swatch_4" x1="69.32" y1="97.12" x2="2.65" y2="97.12" gradientUnits="userSpaceOnUse"><stop offset="0" stop-color="#48b0e0"/><stop offset="0.82" stop-color="#2c62d6"/></linearGradient><linearGradient id="New_Gradient_Swatch_4-2" x1="127.41" y1="97.12" x2="195.81" y2="97.12" xlink:href="#New_Gradient_Swatch_4"/><linearGradient id="New_Gradient_Swatch_4-3" x1="234.48" y1="234.48" x2="57.35" y2="57.35" gradientTransform="translate(0 194.23) rotate(-90)" xlink:href="#New_Gradient_Swatch_4"/></defs><title>Asset 3</title><g class="cls-1"><g id="Layer_2" data-name="Layer 2"><g id="Object"><path class="cls-2" d="M65.47,65.47H0V77a51.73,51.73,0,0,0,51.72,51.72H65.47Z"/><path class="cls-3" d="M142.51,65.47H128.76v63.29h65.47V117.2A51.72,51.72,0,0,0,142.51,65.47Z"/><g class="cls-4"><rect class="cls-5" x="57.99" y="65.47" width="7.48" height="63.28"/><rect class="cls-5" x="128.76" y="65.47" width="7.48" height="63.28"/></g><path class="cls-6" d="M0,65.47H142.51a51.72,51.72,0,0,1,51.72,51.72v11.56a0,0,0,0,1,0,0H51.72A51.72,51.72,0,0,1,0,77V65.47A0,0,0,0,1,0,65.47Z" transform="translate(194.23 0) rotate(90)"/></g></g></g></svg>